<?xml version="1.0" standalone="no"?><!DOCTYPE svg PUBLIC "-//W3C//DTD SVG 1.1//EN" "http://www.w3.org/Graphics/SVG/1.1/DTD/svg11.dtd"><svg t="1652505734880" class="icon" viewBox="0 0 1024 1024" version="1.1" xmlns="http://www.w3.org/2000/svg" p-id="2015" xmlns:xlink="http://www.w3.org/1999/xlink" width="200" height="200"><defs><style type="text/css"></style></defs><path d="M287 70.18181826h450A155.45454521 155.45454521 0 0 1 892.45454521 225.63636348v572.72727304a155.45454521 155.45454521 0 0 1-155.45454521 155.45454522H287A155.45454521 155.45454521 0 0 1 131.54545479 798.36363652V225.63636348A155.45454521 155.45454521 0 0 1 287 70.18181826z m0 65.45454522A90 90 0 0 0 197 225.63636348v572.72727304A90 90 0 0 0 287 888.36363653h450a90 90 0 0 0 90-90V225.63636348A90 90 0 0 0 737 135.63636347H287z" p-id="2016"></path><path d="M327.90909131 401.54545479h204.5454539a32.72727305 32.72727305 0 1 0 0-65.4545461H327.90909131a32.72727305 32.72727305 0 1 0 0 65.4545461zM327.90909131 565.18181826h368.18181738a32.72727305 32.72727305 0 1 0 0-65.45454521H327.90909131a32.72727305 32.72727305 0 1 0 0 65.45454521zM327.90909131 728.81818174h368.18181738a32.72727305 32.72727305 0 1 0 0-65.45454522H327.90909131a32.72727305 32.72727305 0 1 0 0 65.45454522z" p-id="2017"></path></svg>