<?xml version="1.0" standalone="no"?><!DOCTYPE svg PUBLIC "-//W3C//DTD SVG 1.1//EN" "http://www.w3.org/Graphics/SVG/1.1/DTD/svg11.dtd"><svg t="1652505723375" class="icon" viewBox="0 0 1072 1024" version="1.1" xmlns="http://www.w3.org/2000/svg" p-id="1861" xmlns:xlink="http://www.w3.org/1999/xlink" width="209.375" height="200"><defs><style type="text/css"></style></defs><path d="M491.9107146 202.62499973h209.1696427a88.39285674 88.39285674 0 0 1 88.39285675 88.39285757 32.1428573 32.1428573 0 1 0 64.28571459 0 152.67857136 152.67857136 0 0 0-152.67857134-152.67857135H491.9107146a32.1428573 32.1428573 0 1 0 0 64.28571378z m61.67410648 56.25000027L482.5491073 116.00000027a32.1428573 32.1428573 0 1 0-57.57589325 28.60714271l74.37053595 149.58482107a52.2321427 52.2321427 0 0 0 46.76785702 28.96875055H813.33928595A88.39285674 88.39285674 0 0 1 901.7321427 411.55357136v321.42857134a32.1428573 32.1428573 0 1 0 64.2857146 0V411.55357136A152.67857136 152.67857136 0 0 0 813.33928595 258.875h-259.75446487z m348.14732162 273.5357146V773.16071433a88.39285674 88.39285674 0 0 1-88.39285675 88.39285674H250.83928567A88.39285674 88.39285674 0 0 1 162.44642893 773.16071433V250.83928567A88.39285674 88.39285674 0 0 1 250.83928567 162.44642893h202.90178568a32.1428573 32.1428573 0 1 0 0-64.2857146H250.83928567A152.67857136 152.67857136 0 0 0 98.16071433 250.83928567v522.32142866A152.67857136 152.67857136 0 0 0 250.83928567 925.83928567h562.50000028a152.67857136 152.67857136 0 0 0 152.67857135-152.67857134v-240.74999973a32.1428573 32.1428573 0 1 0-64.2857146 0z" p-id="1862"></path></svg>