<?xml version="1.0" standalone="no"?><!DOCTYPE svg PUBLIC "-//W3C//DTD SVG 1.1//EN" "http://www.w3.org/Graphics/SVG/1.1/DTD/svg11.dtd"><svg t="1653191688821" class="icon" viewBox="0 0 1024 1024" version="1.1" xmlns="http://www.w3.org/2000/svg" p-id="1695" xmlns:xlink="http://www.w3.org/1999/xlink" width="200" height="200"><defs><style type="text/css"></style></defs><path d="M793.12727305 261.8A375.3 375.3 0 0 0 512 135.63636347a376.36363653 376.36363653 0 1 0 376.36363653 376.36363653 32.72727305 32.72727305 0 1 1 65.45454521 0c0 244.02272695-197.79545479 441.81818174-441.81818174 441.81818174C267.97727305 953.81818174 70.18181826 756.02272695 70.18181826 512 70.18181826 267.97727305 267.97727305 70.18181826 512 70.18181826c125.18181826 0 241.85454521 52.36363653 324.77727305 142.28181827l5.68636347-112.5a32.72727305 32.72727305 0 0 1 65.37272696 3.27272695l-8.71363653 172.22727305a53.18181826 53.18181826 0 0 1-51.87272695 50.52272695l-170.75454521 4.00909131a32.72727305 32.72727305 0 0 1-1.5545461-65.4545461l118.22727305-2.74090869z" p-id="1696"></path></svg>